<svg width="62" height="47" viewBox="0 0 62 47" version="1.1" xmlns="http://www.w3.org/2000/svg" xmlns:xlink="http://www.w3.org/1999/xlink" xmlns:figma="http://www.figma.com/figma/ns">
<title>Sine Wave</title>
<desc>Created using Figma</desc>
<g id="Canvas" transform="translate(637 446)" figma:type="canvas">
<g id="Sine Wave" style="mix-blend-mode:normal;" figma:type="vector">
<use xlink:href="#path0_stroke" transform="translate(-636 -445)" style="mix-blend-mode:normal;"/>
</g>
</g>
<defs>
<path id="path0_stroke" d="M 13.5484 6.6248e-30L 13.5484 0.5L 13.5484 6.6248e-30ZM 0 25.3125C 0.498545 25.3506 0.498543 25.3506 0.49855 25.3506C 0.498562 25.3504 0.498575 25.3502 0.498599 25.3499C 0.498653 25.3492 0.498725 25.3483 0.498833 25.3469C 0.499062 25.344 0.499387 25.3399 0.499851 25.3341C 0.500801 25.3222 0.502201 25.305 0.504158 25.2817C 0.508121 25.2344 0.514094 25.1653 0.522481 25.0739C 0.539364 24.8899 0.565401 24.6223 0.602893 24.2791C 0.678138 23.5902 0.797759 22.6121 0.978135 21.433C 1.33956 19.0691 1.93696 15.9405 2.89752 12.8025C 3.85725 9.66244 5.15033 6.57893 6.92948 4.25879C 8.68703 1.96024 10.8539 0.5 13.5484 0.5L 13.5484 -0.5C 10.4365 -0.5 8.00658 1.20382 6.1351 3.65137C 4.28523 6.07732 2.91701 9.32193 1.94125 12.51C 0.966307 15.7001 0.354024 18.8996 -0.0103729 21.2818C -0.192906 22.4758 -0.315226 23.4752 -0.391194 24.1706C -0.429308 24.5196 -0.456197 24.7958 -0.473336 24.9825C -0.481961 25.0766 -0.488274 25.1496 -0.492344 25.1981C -0.494404 25.2227 -0.495957 25.2418 -0.496956 25.2542C -0.497468 25.2606 -0.497865 25.2657 -0.498117 25.2689C -0.498249 25.2706 -0.498356 25.2719 -0.498421 25.2728C -0.498457 25.2732 -0.498488 25.2736 -0.498505 25.2739C -0.498529 25.2742 -0.498545 25.2744 0 25.3125ZM 13.5484 0.5C 17.15 0.5 20.1648 3.11504 22.882 7.30337C 25.5957 11.4827 27.9036 17.063 30.1403 22.6848C 32.3769 28.3066 34.5372 33.9623 36.9282 38.214C 38.1284 40.3455 39.4193 42.1663 40.7965 43.4347C 42.1971 44.7207 43.7488 45.5 45.4839 45.5L 45.4839 44.5C 44.0738 44.5 42.7525 43.873 41.4729 42.6981C 40.1699 41.5055 38.9734 39.8108 37.7997 37.7235C 35.4426 33.5377 33.3086 27.9434 31.0694 22.3152C 28.8302 16.687 26.4809 11.0173 23.7209 6.75913C 20.9642 2.50996 17.6887 -0.5 13.5484 -0.5L 13.5484 0.5ZM 45.4839 45.5C 52.0942 45.5 55.8459 40.3157 57.921 35.349C 58.9619 32.8546 59.6101 30.347 59.9908 28.489C 60.1818 27.556 60.309 26.7724 60.3872 26.2297C 60.4265 25.9565 60.4542 25.7391 60.4717 25.593C 60.4805 25.5191 60.487 25.4611 60.4911 25.423C 60.4933 25.4035 60.4949 25.3881 60.4959 25.3782C 60.4964 25.373 60.4969 25.3688 60.4971 25.3662C 60.4973 25.3648 60.4974 25.3636 60.4975 25.3629C 60.4975 25.3625 60.4975 25.3622 60.4975 25.362C 60.4976 25.3616 60.4976 25.3614 60 25.3125C 59.5024 25.2636 59.5024 25.2635 59.5024 25.2635C 59.5024 25.2636 59.5024 25.2637 59.5024 25.2639C 59.5023 25.2644 59.5023 25.2649 59.5022 25.2659C 59.5019 25.2681 59.5016 25.271 59.5012 25.2754C 59.5003 25.2844 59.4989 25.2972 59.497 25.315C 59.493 25.3514 59.4871 25.4039 59.4787 25.4742C 59.4617 25.6165 59.4355 25.8221 59.3974 26.0872C 59.3205 26.6211 59.1982 27.3756 59.0112 28.2883C 58.6358 30.1217 58.0139 32.5361 56.9983 34.9635C 54.9606 39.8406 51.4542 44.5 45.4839 44.5L 45.4839 45.5Z"/>
</defs>
</svg>
